<svg xmlns="http://www.w3.org/2000/svg" version="1.1" xmlns:xlink="http://www.w3.org/1999/xlink" xmlns:svgjs="http://svgjs.dev/svgjs" width="1500" height="1500" viewBox="0 0 1500 1500"><rect width="1500" height="1500" fill="#000000"></rect><g transform="matrix(0.6666666666666666,0,0,0.6666666666666666,249.39468998640734,637.410001668444)"><svg viewBox="0 0 396 89" data-background-color="#000000" preserveAspectRatio="xMidYMid meet" height="337" width="1500" xmlns="http://www.w3.org/2000/svg" xmlns:xlink="http://www.w3.org/1999/xlink"><g id="tight-bounds" transform="matrix(1,0,0,1,0.2399599999999964,0.10178387097300856)"><svg viewBox="0 0 395.52 88.79621995493267" height="88.79621995493267" width="395.52"><rect width="395.52033723461733" height="88.796540232105" fill="#ffffff" mask="url(#5cb6faf4-90da-453c-86f3-3a9ee43cdfe1)" data-fill-palette-color="tertiary"></rect><g><svg viewBox="0 0 395.52 88.79621995493267" height="88.79621995493267" width="395.52"><g><svg viewBox="0 0 395.52 88.79621995493267" height="88.79621995493267" width="395.52"><g id="textblocktransform"><svg viewBox="0 0 395.52 88.79621995493267" height="88.79621995493267" width="395.52" id="textblock"><g><svg viewBox="0 0 395.52 88.79621995493267" height="88.79621995493267" width="395.52"><path d="M394.594 19.045C392.735 9.828 387.435 7.266 387.435 7.266 371.165-2.228 350.86-0.182 332.619 1.183 300.414 1.238 268.339 3.266 236.208 4.353 168.767 4.519 100.749 1.791 33.643 8.519 27.339 10.584-6.54 8.925 1.121 20.225 3.129 24.926 10.456 30.142 10.232 34.456 11.236 35.212 12.631 33.479 13.226 34.567 15.309 37.498 18.711 36.115 21.501 37.848 17.614 42.475 20.403 46.327 23.062 50.365 18.377 51.415 12.371 50.918 9.675 54.402 9.396 56.927 7.89 56.448 6.235 56.337 5.026 56.263 2.59 56.54 2.999 57.333 4.394 60.042-1.594 61.609 2.162 64.264-0.422 67.139 3.948 69.628 3.353 72.743 3.278 73.37 3.687 73.905 4.338 74.052 7.22 74.845 3.018 76.393 3.464 78.071 33.029 89.537 65.104 81.61 95.394 86.882 103.259 83.196 97.346 88.191 100.489 87.417 102.943 86.514 104.728 90.256 107.499 88.136 107.927 87.528 107.276 86.09 108.8 86.366 109.6 86.514 110.307 86.477 110.418 85.629 110.586 84.357 109.117 85.15 108.726 84.486 112.947 81.131 111.906 89.113 115.866 88.781 115.68 87.804 114.528 86.403 116.889 86.587 119.232 85.186 119.306 84.025 121.389 87.177 121.463 87.859 121.835 88.339 122.43 88.67 128.938 85.242 135.409 89.887 142.233 88.339 146.417 86.643 150.433 89.26 154.672 88.615 156.16 88.099 157.666 87.177 159.098 88.726 176.632 89.058 195.319 87.675 211.943 88.781 256.364 86.716 303.836 89.629 350.674 86.901 361.719 85.85 373.192 84.357 383.958 83.159 383.958 83.159 392.679 79.877 392.679 65.13S394.538 52.226 394.817 40.484C395.096 28.741 396.398 28.262 394.538 19.045Z" opacity="1" fill="#ffffff" data-fill-palette-color="tertiary"></path><g transform="matrix(1,0,0,1,55.76832,26.230666666666668)"><svg width="283.98335999999995" viewBox="2.15 -38.1 303.22 38.800000000000004" height="36.33488662159934" data-palette-color="#000000"><path d="M13.5 0.6L13.5 0.6Q9.53 0.6 7.03-1.19 4.53-2.98 3.34-5.93 2.15-8.88 2.15-12.35L2.15-12.35Q2.15-15.8 3.48-18.8 4.8-21.8 7.4-23.65 10-25.5 13.85-25.5L13.85-25.5Q16-25.5 17.75-25.05 19.5-24.6 21.15-23.25L21.15-23.25 19.1-17.95Q18.35-19.07 16.91-19.69 15.48-20.3 14.2-20.3L14.2-20.3Q8.75-20.3 8.75-12.4L8.75-12.4Q8.75-8.25 10.11-6.38 11.48-4.5 14.2-4.5L14.2-4.5Q16-4.5 17.38-5.19 18.75-5.88 19.45-6.65L19.45-6.65 21.35-2.2Q20.65-1.45 18.6-0.43 16.55 0.6 13.5 0.6ZM36.15 0.5L36.15 0.5Q30.65 0.5 27.65-2.95 24.65-6.4 24.65-12.5L24.65-12.5Q24.65-18.65 27.75-22.08 30.85-25.5 36.35-25.5L36.35-25.5Q41.87-25.5 44.76-21.96 47.65-18.43 47.65-12.5L47.65-12.5Q47.65-6.58 44.66-3.04 41.67 0.5 36.15 0.5ZM36.25-4.5L36.25-4.5Q41-4.5 41-12.5L41-12.5Q41-20.55 36.25-20.55L36.25-20.55Q33.9-20.55 32.6-18.69 31.3-16.82 31.3-12.5L31.3-12.5Q31.3-8.2 32.6-6.35 33.9-4.5 36.25-4.5ZM58.45 0.7L58.45 0.7Q56.15 0.7 54.63-0.33 53.12-1.35 52.38-3.05 51.65-4.75 51.65-6.8L51.65-6.8Q51.65-7.95 52.23-9.33 52.82-10.7 54.32-11.95 55.82-13.2 58.55-14 61.27-14.8 65.55-14.8L65.55-14.8 65.55-15.95Q65.55-17.8 64.66-19.03 63.77-20.25 61.1-20.25L61.1-20.25Q59.15-20.25 57.28-19.59 55.42-18.93 54.55-17.95L54.55-17.95 52.55-22.75Q54.05-23.78 56.56-24.64 59.07-25.5 62.15-25.5L62.15-25.5Q65.84-25.5 67.9-24.38 69.95-23.25 70.77-21.19 71.59-19.13 71.59-16.35L71.59-16.35 71.59 0 66.25 0 65.8-3.55Q63.2 0.7 58.45 0.7ZM61.1-4.1L61.1-4.1Q62.22-4.1 63.51-5.01 64.8-5.93 65.55-7.35L65.55-7.35 65.55-10.9Q65.3-10.95 65.01-10.95 64.72-10.95 64.34-10.95L64.34-10.95Q62.97-10.95 61.46-10.64 59.95-10.33 58.9-9.55 57.85-8.78 57.85-7.4L57.85-7.4Q57.85-5.6 58.65-4.85 59.45-4.1 61.1-4.1ZM88.09 0.6L88.09 0.6Q84.12 0.6 81.62-1.19 79.12-2.98 77.93-5.93 76.74-8.88 76.74-12.35L76.74-12.35Q76.74-15.8 78.07-18.8 79.39-21.8 81.99-23.65 84.59-25.5 88.44-25.5L88.44-25.5Q90.59-25.5 92.34-25.05 94.09-24.6 95.74-23.25L95.74-23.25 93.69-17.95Q92.94-19.07 91.5-19.69 90.07-20.3 88.79-20.3L88.79-20.3Q83.34-20.3 83.34-12.4L83.34-12.4Q83.34-8.25 84.7-6.38 86.07-4.5 88.79-4.5L88.79-4.5Q90.59-4.5 91.97-5.19 93.34-5.88 94.04-6.65L94.04-6.65 95.94-2.2Q95.24-1.45 93.19-0.43 91.14 0.6 88.09 0.6ZM107.19 0L101.04 0 101.04-38.1 106.94-38.1 106.94-25.5 106.81-21.75Q107.81-23.2 109.62-24.35 111.42-25.5 114.39-25.5L114.39-25.5Q118.14-25.5 119.99-23.1 121.84-20.7 121.84-16.45L121.84-16.45 121.84 0 115.44 0 115.44-15.8Q115.44-17.88 114.45-19.16 113.47-20.45 111.69-20.45L111.69-20.45Q109.94-20.45 108.56-19.16 107.19-17.88 107.19-15.8L107.19-15.8 107.19 0ZM134.44 0.7L134.44 0.7Q132.14 0.7 130.63-0.33 129.11-1.35 128.38-3.05 127.64-4.75 127.64-6.8L127.64-6.8Q127.64-7.95 128.23-9.33 128.81-10.7 130.31-11.95 131.81-13.2 134.54-14 137.26-14.8 141.54-14.8L141.54-14.8 141.54-15.95Q141.54-17.8 140.65-19.03 139.76-20.25 137.09-20.25L137.09-20.25Q135.14-20.25 133.28-19.59 131.41-18.93 130.54-17.95L130.54-17.95 128.54-22.75Q130.04-23.78 132.55-24.64 135.06-25.5 138.14-25.5L138.14-25.5Q141.84-25.5 143.89-24.38 145.94-23.25 146.76-21.19 147.59-19.13 147.59-16.35L147.59-16.35 147.59 0 142.24 0 141.79-3.55Q139.19 0.7 134.44 0.7ZM137.09-4.1L137.09-4.1Q138.21-4.1 139.5-5.01 140.79-5.93 141.54-7.35L141.54-7.35 141.54-10.9Q141.29-10.95 141-10.95 140.71-10.95 140.34-10.95L140.34-10.95Q138.96-10.95 137.45-10.64 135.94-10.33 134.89-9.55 133.84-8.78 133.84-7.4L133.84-7.4Q133.84-5.6 134.64-4.85 135.44-4.1 137.09-4.1ZM160.69 0L154.28 0 154.28-24.9 160.09-24.9 160.21-21.63Q161.19-23.13 162.94-24.31 164.69-25.5 167.53-25.5L167.53-25.5Q171.34-25.5 173.19-23.1 175.04-20.7 175.04-16.45L175.04-16.45 175.04 0 168.64 0 168.64-15.9Q168.64-17.98 167.76-19.26 166.89-20.55 165.09-20.55L165.09-20.55Q163.34-20.55 162.01-19.26 160.69-17.98 160.69-15.9L160.69-15.9 160.69 0ZM189.03-28.95L182.03-28.95 182.03-35.6 189.03-35.6 189.03-28.95ZM188.78 0L182.28 0 182.28-24.9 188.78-24.9 188.78 0ZM202.43 0L196.33 0 196.33-38 202.43-38 202.43 0ZM216.73 0.45L216.73 0.45Q214 0.45 212.27-0.06 210.53-0.58 209.57-1.24 208.6-1.9 208.23-2.35L208.23-2.35 210.08-7.1Q211.18-6.2 212.89-5.33 214.6-4.45 216.88-4.45L216.88-4.45Q218.65-4.45 219.37-5.18 220.08-5.9 220.08-6.75L220.08-6.75Q220.08-7.93 218.45-8.88 216.83-9.83 214.68-10.75L214.68-10.75Q213.4-11.3 211.98-12.15 210.55-13 209.54-14.4 208.53-15.8 208.53-18L208.53-18Q208.53-21.38 210.99-23.39 213.45-25.4 217.98-25.4L217.98-25.4Q220.88-25.4 222.89-24.54 224.9-23.68 225.58-23L225.58-23 223.88-18.5Q222.9-19.25 221.4-19.93 219.9-20.6 218.18-20.6L218.18-20.6Q216.28-20.6 215.53-20.1 214.78-19.6 214.78-18.5L214.78-18.5Q214.78-17.28 216.12-16.49 217.45-15.7 219.33-14.95L219.33-14.95Q222.45-13.73 224.37-11.94 226.28-10.15 226.28-7.4L226.28-7.4Q226.28-5.35 225.33-3.56 224.38-1.78 222.28-0.66 220.18 0.45 216.73 0.45ZM236.78 0.7L236.78 0.7Q234.48 0.7 232.96-0.33 231.45-1.35 230.71-3.05 229.98-4.75 229.98-6.8L229.98-6.8Q229.98-7.95 230.56-9.33 231.15-10.7 232.65-11.95 234.15-13.2 236.88-14 239.6-14.8 243.88-14.8L243.88-14.8 243.88-15.95Q243.88-17.8 242.99-19.03 242.1-20.25 239.43-20.25L239.43-20.25Q237.48-20.25 235.61-19.59 233.75-18.93 232.88-17.95L232.88-17.95 230.88-22.75Q232.38-23.78 234.89-24.64 237.4-25.5 240.48-25.5L240.48-25.5Q244.18-25.5 246.23-24.38 248.28-23.25 249.1-21.19 249.93-19.13 249.93-16.35L249.93-16.35 249.93 0 244.58 0 244.13-3.55Q241.53 0.7 236.78 0.7ZM239.43-4.1L239.43-4.1Q240.55-4.1 241.84-5.01 243.13-5.93 243.88-7.35L243.88-7.35 243.88-10.9Q243.63-10.95 243.34-10.95 243.05-10.95 242.68-10.95L242.68-10.95Q241.3-10.95 239.79-10.64 238.28-10.33 237.23-9.55 236.18-8.78 236.18-7.4L236.18-7.4Q236.18-5.6 236.98-4.85 237.78-4.1 239.43-4.1ZM263.42-28.95L256.42-28.95 256.42-35.6 263.42-35.6 263.42-28.95ZM263.17 0L256.67 0 256.67-24.9 263.17-24.9 263.17 0ZM277.02 0L270.62 0 270.62-24.9 276.42-24.9 276.55-21.63Q277.52-23.13 279.27-24.31 281.02-25.5 283.87-25.5L283.87-25.5Q287.67-25.5 289.52-23.1 291.37-20.7 291.37-16.45L291.37-16.45 291.37 0 284.97 0 284.97-15.9Q284.97-17.98 284.1-19.26 283.22-20.55 281.42-20.55L281.42-20.55Q279.67-20.55 278.35-19.26 277.02-17.98 277.02-15.9L277.02-15.9 277.02 0ZM305.37-28.95L298.37-28.95 298.37-35.6 305.37-35.6 305.37-28.95ZM305.12 0L298.62 0 298.62-24.9 305.12-24.9 305.12 0Z" opacity="1" transform="matrix(1,0,0,1,0,0)" fill="#000000" class="wordmark-text-0" data-fill-palette-color="quaternary" id="text-0"></path></svg></g></svg></g></svg></g></svg></g><g></g></svg></g><defs></defs><mask id="5cb6faf4-90da-453c-86f3-3a9ee43cdfe1"><g id="SvgjsG4716"><svg viewBox="0 0 395.52 88.79621995493267" height="88.79621995493267" width="395.52"><g><svg viewBox="0 0 395.52 88.79621995493267" height="88.79621995493267" width="395.52"><g><svg viewBox="0 0 395.52 88.79621995493267" height="88.79621995493267" width="395.52"><g id="SvgjsG4715"><svg viewBox="0 0 395.52 88.79621995493267" height="88.79621995493267" width="395.52" id="SvgjsSvg4714"><g><svg viewBox="0 0 395.52 88.79621995493267" height="88.79621995493267" width="395.52"><path d="M394.594 19.045C392.735 9.828 387.435 7.266 387.435 7.266 371.165-2.228 350.86-0.182 332.619 1.183 300.414 1.238 268.339 3.266 236.208 4.353 168.767 4.519 100.749 1.791 33.643 8.519 27.339 10.584-6.54 8.925 1.121 20.225 3.129 24.926 10.456 30.142 10.232 34.456 11.236 35.212 12.631 33.479 13.226 34.567 15.309 37.498 18.711 36.115 21.501 37.848 17.614 42.475 20.403 46.327 23.062 50.365 18.377 51.415 12.371 50.918 9.675 54.402 9.396 56.927 7.89 56.448 6.235 56.337 5.026 56.263 2.59 56.54 2.999 57.333 4.394 60.042-1.594 61.609 2.162 64.264-0.422 67.139 3.948 69.628 3.353 72.743 3.278 73.37 3.687 73.905 4.338 74.052 7.22 74.845 3.018 76.393 3.464 78.071 33.029 89.537 65.104 81.61 95.394 86.882 103.259 83.196 97.346 88.191 100.489 87.417 102.943 86.514 104.728 90.256 107.499 88.136 107.927 87.528 107.276 86.09 108.8 86.366 109.6 86.514 110.307 86.477 110.418 85.629 110.586 84.357 109.117 85.15 108.726 84.486 112.947 81.131 111.906 89.113 115.866 88.781 115.68 87.804 114.528 86.403 116.889 86.587 119.232 85.186 119.306 84.025 121.389 87.177 121.463 87.859 121.835 88.339 122.43 88.67 128.938 85.242 135.409 89.887 142.233 88.339 146.417 86.643 150.433 89.26 154.672 88.615 156.16 88.099 157.666 87.177 159.098 88.726 176.632 89.058 195.319 87.675 211.943 88.781 256.364 86.716 303.836 89.629 350.674 86.901 361.719 85.85 373.192 84.357 383.958 83.159 383.958 83.159 392.679 79.877 392.679 65.13S394.538 52.226 394.817 40.484C395.096 28.741 396.398 28.262 394.538 19.045Z" opacity="1" fill="white"></path><g transform="matrix(1,0,0,1,55.76832,26.230666666666668)"><svg width="283.98335999999995" viewBox="2.15 -38.1 303.22 38.800000000000004" height="36.33488662159934" data-palette-color="#000000"><path d="M13.5 0.6L13.5 0.6Q9.53 0.6 7.03-1.19 4.53-2.98 3.34-5.93 2.15-8.88 2.15-12.35L2.15-12.35Q2.15-15.8 3.48-18.8 4.8-21.8 7.4-23.65 10-25.5 13.85-25.5L13.85-25.5Q16-25.5 17.75-25.05 19.5-24.6 21.15-23.25L21.15-23.25 19.1-17.95Q18.35-19.07 16.91-19.69 15.48-20.3 14.2-20.3L14.2-20.3Q8.75-20.3 8.75-12.4L8.75-12.4Q8.75-8.25 10.11-6.38 11.48-4.5 14.2-4.5L14.2-4.5Q16-4.5 17.38-5.19 18.75-5.88 19.45-6.65L19.45-6.65 21.35-2.2Q20.65-1.45 18.6-0.43 16.55 0.6 13.5 0.6ZM36.15 0.5L36.15 0.5Q30.65 0.5 27.65-2.95 24.65-6.4 24.65-12.5L24.65-12.5Q24.65-18.65 27.75-22.08 30.85-25.5 36.35-25.5L36.35-25.5Q41.87-25.5 44.76-21.96 47.65-18.43 47.65-12.5L47.65-12.5Q47.65-6.58 44.66-3.04 41.67 0.5 36.15 0.5ZM36.25-4.5L36.25-4.5Q41-4.5 41-12.5L41-12.5Q41-20.55 36.25-20.55L36.25-20.55Q33.9-20.55 32.6-18.69 31.3-16.82 31.3-12.5L31.3-12.5Q31.3-8.2 32.6-6.35 33.9-4.5 36.25-4.5ZM58.45 0.7L58.45 0.7Q56.15 0.7 54.63-0.33 53.12-1.35 52.38-3.05 51.65-4.75 51.65-6.8L51.65-6.8Q51.65-7.95 52.23-9.33 52.82-10.7 54.32-11.95 55.82-13.2 58.55-14 61.27-14.8 65.55-14.8L65.55-14.8 65.55-15.95Q65.55-17.8 64.66-19.03 63.77-20.25 61.1-20.25L61.1-20.25Q59.15-20.25 57.28-19.59 55.42-18.93 54.55-17.95L54.55-17.95 52.55-22.75Q54.05-23.78 56.56-24.64 59.07-25.5 62.15-25.5L62.15-25.5Q65.84-25.5 67.9-24.38 69.95-23.25 70.77-21.19 71.59-19.13 71.59-16.35L71.59-16.35 71.59 0 66.25 0 65.8-3.55Q63.2 0.7 58.45 0.7ZM61.1-4.1L61.1-4.1Q62.22-4.1 63.51-5.01 64.8-5.93 65.55-7.35L65.55-7.35 65.55-10.9Q65.3-10.95 65.01-10.95 64.72-10.95 64.34-10.95L64.34-10.95Q62.97-10.95 61.46-10.64 59.95-10.33 58.9-9.55 57.85-8.78 57.85-7.4L57.85-7.4Q57.85-5.6 58.65-4.85 59.45-4.1 61.1-4.1ZM88.09 0.6L88.09 0.6Q84.12 0.6 81.62-1.19 79.12-2.98 77.93-5.93 76.74-8.88 76.74-12.35L76.74-12.35Q76.74-15.8 78.07-18.8 79.39-21.8 81.99-23.65 84.59-25.5 88.44-25.5L88.44-25.5Q90.59-25.5 92.34-25.05 94.09-24.6 95.74-23.25L95.74-23.25 93.69-17.95Q92.94-19.07 91.5-19.69 90.07-20.3 88.79-20.3L88.79-20.3Q83.34-20.3 83.34-12.4L83.34-12.4Q83.34-8.25 84.7-6.38 86.07-4.5 88.79-4.5L88.79-4.5Q90.59-4.5 91.97-5.19 93.34-5.88 94.04-6.65L94.04-6.65 95.94-2.2Q95.24-1.45 93.19-0.43 91.14 0.6 88.09 0.6ZM107.19 0L101.04 0 101.04-38.1 106.94-38.1 106.94-25.5 106.81-21.75Q107.81-23.2 109.62-24.35 111.42-25.5 114.39-25.5L114.39-25.5Q118.14-25.5 119.99-23.1 121.84-20.7 121.84-16.45L121.84-16.45 121.84 0 115.44 0 115.44-15.8Q115.44-17.88 114.45-19.16 113.47-20.45 111.69-20.45L111.69-20.45Q109.94-20.45 108.56-19.16 107.19-17.88 107.19-15.8L107.19-15.8 107.19 0ZM134.44 0.7L134.44 0.7Q132.14 0.7 130.63-0.33 129.11-1.35 128.38-3.05 127.64-4.75 127.64-6.8L127.64-6.8Q127.64-7.95 128.23-9.33 128.81-10.7 130.31-11.95 131.81-13.2 134.54-14 137.26-14.8 141.54-14.8L141.54-14.8 141.54-15.95Q141.54-17.8 140.65-19.03 139.76-20.25 137.09-20.25L137.09-20.25Q135.14-20.25 133.28-19.59 131.41-18.93 130.54-17.95L130.54-17.95 128.54-22.75Q130.04-23.78 132.55-24.64 135.06-25.5 138.14-25.5L138.14-25.5Q141.84-25.5 143.89-24.38 145.94-23.25 146.76-21.19 147.59-19.13 147.59-16.35L147.59-16.35 147.59 0 142.24 0 141.79-3.55Q139.19 0.7 134.44 0.7ZM137.09-4.1L137.09-4.1Q138.21-4.1 139.5-5.01 140.79-5.93 141.54-7.35L141.54-7.35 141.54-10.9Q141.29-10.95 141-10.95 140.71-10.95 140.34-10.95L140.34-10.95Q138.96-10.95 137.45-10.64 135.94-10.33 134.89-9.55 133.84-8.78 133.84-7.4L133.84-7.4Q133.84-5.6 134.64-4.85 135.44-4.1 137.09-4.1ZM160.69 0L154.28 0 154.28-24.9 160.09-24.9 160.21-21.63Q161.19-23.13 162.94-24.31 164.69-25.5 167.53-25.5L167.53-25.5Q171.34-25.5 173.19-23.1 175.04-20.7 175.04-16.45L175.04-16.45 175.04 0 168.64 0 168.64-15.9Q168.64-17.98 167.76-19.26 166.89-20.55 165.09-20.55L165.09-20.55Q163.34-20.55 162.01-19.26 160.69-17.98 160.69-15.9L160.69-15.9 160.69 0ZM189.03-28.95L182.03-28.95 182.03-35.6 189.03-35.6 189.03-28.95ZM188.78 0L182.28 0 182.28-24.9 188.78-24.9 188.78 0ZM202.43 0L196.33 0 196.33-38 202.43-38 202.43 0ZM216.73 0.45L216.73 0.45Q214 0.45 212.27-0.06 210.53-0.58 209.57-1.24 208.6-1.9 208.23-2.35L208.23-2.35 210.08-7.1Q211.18-6.2 212.89-5.33 214.6-4.45 216.88-4.45L216.88-4.45Q218.65-4.45 219.37-5.18 220.08-5.9 220.08-6.75L220.08-6.75Q220.08-7.93 218.45-8.88 216.83-9.83 214.68-10.75L214.68-10.75Q213.4-11.3 211.98-12.15 210.55-13 209.54-14.4 208.53-15.8 208.53-18L208.53-18Q208.53-21.38 210.99-23.39 213.45-25.4 217.98-25.4L217.98-25.4Q220.88-25.4 222.89-24.54 224.9-23.68 225.58-23L225.58-23 223.88-18.5Q222.9-19.25 221.4-19.93 219.9-20.6 218.18-20.6L218.18-20.6Q216.28-20.6 215.53-20.1 214.78-19.6 214.78-18.5L214.78-18.5Q214.78-17.28 216.12-16.49 217.45-15.7 219.33-14.95L219.33-14.95Q222.45-13.73 224.37-11.94 226.28-10.15 226.28-7.4L226.28-7.4Q226.28-5.35 225.33-3.56 224.38-1.78 222.28-0.66 220.18 0.45 216.73 0.45ZM236.78 0.7L236.78 0.7Q234.48 0.7 232.96-0.33 231.45-1.35 230.71-3.05 229.98-4.75 229.98-6.8L229.98-6.8Q229.98-7.95 230.56-9.33 231.15-10.7 232.65-11.95 234.15-13.2 236.88-14 239.6-14.8 243.88-14.8L243.88-14.8 243.88-15.95Q243.88-17.8 242.99-19.03 242.1-20.25 239.43-20.25L239.43-20.25Q237.48-20.25 235.61-19.59 233.75-18.93 232.88-17.95L232.88-17.95 230.88-22.75Q232.38-23.78 234.89-24.64 237.4-25.5 240.48-25.5L240.48-25.5Q244.18-25.5 246.23-24.38 248.28-23.25 249.1-21.19 249.93-19.13 249.93-16.35L249.93-16.35 249.93 0 244.58 0 244.13-3.55Q241.53 0.7 236.78 0.7ZM239.43-4.1L239.43-4.1Q240.55-4.1 241.84-5.01 243.13-5.93 243.88-7.35L243.88-7.35 243.88-10.9Q243.63-10.95 243.34-10.95 243.05-10.95 242.68-10.95L242.68-10.95Q241.3-10.95 239.79-10.64 238.28-10.33 237.23-9.55 236.18-8.78 236.18-7.4L236.18-7.4Q236.18-5.6 236.98-4.85 237.78-4.1 239.43-4.1ZM263.42-28.95L256.42-28.95 256.42-35.6 263.42-35.6 263.42-28.95ZM263.17 0L256.67 0 256.67-24.9 263.17-24.9 263.17 0ZM277.02 0L270.62 0 270.62-24.9 276.42-24.9 276.55-21.63Q277.52-23.13 279.27-24.31 281.02-25.5 283.87-25.5L283.87-25.5Q287.67-25.5 289.52-23.1 291.37-20.7 291.37-16.45L291.37-16.45 291.37 0 284.97 0 284.97-15.9Q284.97-17.98 284.1-19.26 283.22-20.55 281.42-20.55L281.42-20.55Q279.67-20.55 278.35-19.26 277.02-17.98 277.02-15.9L277.02-15.9 277.02 0ZM305.37-28.95L298.37-28.95 298.37-35.6 305.37-35.6 305.37-28.95ZM305.12 0L298.62 0 298.62-24.9 305.12-24.9 305.12 0Z" opacity="1" transform="matrix(1,0,0,1,0,0)" fill="black" class="wordmark-text-0" id="SvgjsPath4713"></path></svg></g></svg></g></svg></g></svg></g><g></g></svg></g><defs><mask></mask></defs></svg><rect width="395.52" height="88.79621995493267" fill="black" stroke="none" visibility="hidden"></rect></g></mask><linearGradient x1="0" x2="1" y1="0.5" y2="0.5" id="731fcf53-66c0-454f-9acf-0a7c1ff1721c"><stop stop-color="#fff72e" offset="0"></stop><stop stop-color="#deae29" offset="1"></stop></linearGradient></svg><rect width="395.52" height="88.79621995493267" fill="none" stroke="none" visibility="hidden"></rect></g></svg></g></svg>